<svg width="1440" height="396" viewBox="0 0 1440 396" fill="none" xmlns="http://www.w3.org/2000/svg">
<rect width="1440" height="396" fill="white"/>
<path d="M363.193 266V127.145H451.267V146.188H385.807V183.282H442.341V202.127H385.807V246.957H451.267V266H363.193ZM472.19 266V167.611H494.01L494.407 181.1C497.713 175.943 502.275 172.041 508.094 169.397C513.912 166.619 519.996 165.231 526.343 165.231C537.848 165.231 547.172 168.868 554.313 176.141C561.454 183.414 565.024 194.126 565.024 208.276V266H542.808V211.053C542.808 202.722 540.824 196.176 536.857 191.415C532.889 186.654 527.071 184.274 519.401 184.274C511.73 184.274 505.647 186.853 501.151 192.01C496.787 197.035 494.605 203.912 494.605 212.64V266H472.19ZM579.189 266V247.75L626.598 186.059H579.784V167.611H652.187V185.662L604.579 247.552H652.782V266H579.189ZM716.215 268.38C706.561 268.38 697.9 266.264 690.229 262.033C682.559 257.801 676.476 251.85 671.98 244.18C667.616 236.378 665.434 227.253 665.434 216.806C665.434 206.094 667.748 196.903 672.377 189.233C677.005 181.563 683.221 175.678 691.023 171.579C698.825 167.347 707.487 165.231 717.009 165.231C726.662 165.231 735.324 167.347 742.994 171.579C750.797 175.678 756.946 181.563 761.442 189.233C766.071 196.903 768.385 206.094 768.385 216.806C768.385 226.724 766.137 235.584 761.641 243.386C757.277 251.189 751.127 257.338 743.193 261.834C735.39 266.198 726.398 268.38 716.215 268.38ZM716.414 248.941C722.1 248.941 727.059 247.552 731.291 244.775C735.655 241.866 739.093 237.965 741.606 233.072C744.118 228.179 745.375 222.624 745.375 216.409C745.375 209.929 744.118 204.309 741.606 199.548C739.093 194.787 735.655 191.151 731.291 188.638C727.059 185.993 722.166 184.671 716.612 184.671C710.793 184.671 705.702 186.059 701.338 188.836C697.106 191.613 693.866 195.448 691.618 200.341C689.37 205.102 688.246 210.59 688.246 216.806C688.246 223.55 689.502 229.369 692.015 234.262C694.66 239.022 698.098 242.659 702.33 245.172C706.694 247.684 711.388 248.941 716.414 248.941ZM789.98 266V127.145H806.643V185.662H878.649V127.145H895.312V266H878.649V199.35H806.643V266H789.98ZM967.856 268.38C958.731 268.38 950.466 266.264 943.06 262.033C935.787 257.801 930.034 251.85 925.803 244.18C921.571 236.378 919.455 227.253 919.455 216.806C919.455 206.491 921.439 197.498 925.406 189.828C929.505 182.026 935.192 176.009 942.465 171.777C949.871 167.413 958.467 165.231 968.253 165.231C977.51 165.231 985.576 167.281 992.453 171.38C999.33 175.48 1004.69 181.034 1008.52 188.043C1012.49 194.919 1014.47 202.656 1014.47 211.251C1014.47 213.103 1014.47 214.558 1014.47 215.615C1014.47 216.673 1014.41 218.326 1014.27 220.575H935.919C936.316 227.054 937.837 232.873 940.482 238.031C943.259 243.056 946.961 247.023 951.59 249.932C956.351 252.842 961.773 254.297 967.856 254.297C974.733 254.297 980.485 252.71 985.114 249.536C989.742 246.362 993.114 242.064 995.23 236.642H1011.69C1009.98 242.725 1007.13 248.147 1003.16 252.908C999.197 257.669 994.238 261.438 988.287 264.215C982.469 266.992 975.658 268.38 967.856 268.38ZM936.118 207.681H998.007C997.611 198.821 994.569 191.878 988.882 186.853C983.196 181.827 976.187 179.315 967.856 179.315C959.921 179.315 952.846 181.761 946.631 186.654C940.548 191.415 937.043 198.424 936.118 207.681ZM1069.29 268.38C1062.54 268.38 1056.39 267.256 1050.84 265.008C1045.28 262.76 1040.85 259.388 1037.55 254.892C1034.37 250.263 1032.79 244.643 1032.79 238.031C1032.79 230.361 1034.77 224.277 1038.74 219.781C1042.71 215.153 1047.93 211.847 1054.41 209.863C1061.02 207.747 1068.1 206.689 1075.63 206.689H1102.22C1102.22 199.812 1101.03 194.39 1098.64 190.423C1096.4 186.456 1093.42 183.613 1089.72 181.894C1086.02 180.174 1081.92 179.315 1077.42 179.315C1070.94 179.315 1065.32 180.902 1060.56 184.076C1055.93 187.117 1053.02 191.878 1051.83 198.358H1034.77C1035.43 191.217 1037.81 185.2 1041.91 180.307C1046.01 175.414 1051.17 171.711 1057.38 169.198C1063.73 166.553 1070.41 165.231 1077.42 165.231C1087.34 165.231 1095.34 167.082 1101.42 170.785C1107.5 174.356 1111.94 179.183 1114.71 185.266C1117.49 191.349 1118.88 198.093 1118.88 205.499V235.65C1118.88 240.543 1119.47 244.246 1120.66 246.759C1121.85 249.271 1124.89 250.792 1129.79 251.321V266C1125.42 266 1121.46 265.471 1117.89 264.413C1114.32 263.223 1111.27 261.371 1108.76 258.859C1106.38 256.214 1104.66 252.776 1103.6 248.544C1100.3 254.098 1095.74 258.793 1089.92 262.628C1084.23 266.463 1077.35 268.38 1069.29 268.38ZM1071.87 254.297C1078.48 254.297 1084.03 252.643 1088.53 249.337C1093.02 245.899 1096.4 241.535 1098.64 236.245C1101.03 230.956 1102.22 225.468 1102.22 219.781V219.583H1077.02C1072.39 219.583 1068.03 220.112 1063.93 221.17C1059.83 222.095 1056.53 223.881 1054.01 226.525C1051.5 229.038 1050.24 232.609 1050.24 237.237C1050.24 243.188 1052.36 247.552 1056.59 250.329C1060.82 252.974 1065.91 254.297 1071.87 254.297ZM1149.88 266V127.145H1166.54V266H1149.88ZM1232.73 266C1223.74 266 1216.67 263.818 1211.51 259.454C1206.35 255.09 1203.77 247.222 1203.77 235.849V181.695H1186.71V167.611H1203.77V144.006H1220.43V167.611H1248.01V181.695H1220.43V235.849C1220.43 242.064 1221.69 246.296 1224.2 248.544C1226.72 250.66 1231.15 251.718 1237.49 251.718H1248.01V266H1232.73ZM1270.56 266V127.145H1287.23V184.472C1290.53 178.389 1295.23 173.694 1301.31 170.388C1307.39 166.95 1314.01 165.231 1321.15 165.231C1332.52 165.231 1341.65 168.801 1348.52 175.943C1355.4 182.951 1358.84 193.795 1358.84 208.474V266H1342.37V210.26C1342.37 200.077 1340.26 192.407 1336.02 187.249C1331.93 182.092 1325.78 179.513 1317.58 179.513C1308.98 179.513 1301.77 182.621 1295.96 188.836C1290.14 194.919 1287.23 203.647 1287.23 215.02V266H1270.56Z" fill="black"/>
<path d="M269.394 239.017C269.394 225.044 258.067 213.717 244.095 213.717H187.248V270.564C187.248 284.536 198.575 295.863 212.548 295.863H269.394V239.017Z" stroke="#8287FF" stroke-width="9.97196"/>
<path d="M74.9401 126.709C74.9401 112.737 86.2669 101.41 100.239 101.41H157.086V295.863H100.239C86.267 295.863 74.9401 284.536 74.9401 270.564V126.709Z" stroke="#8287FF" stroke-width="9.97196"/>
<path d="M187.248 126.709C187.248 112.737 198.575 101.41 212.547 101.41H269.393V158.256C269.393 172.229 258.066 183.555 244.094 183.555H187.248V126.709Z" stroke="#8287FF" stroke-width="9.97196"/>
</svg>
